<svg id="icon" xmlns="http://www.w3.org/2000/svg" viewBox="0 0 512 512"><title>pie graph</title><path d="M153.15,452a5.42,5.42,0,0,0,1.32.16,5.59,5.59,0,0,0,5.42-4.26l37.79-154.68a5.81,5.81,0,0,0,.16-1.32V132.72a5.58,5.58,0,0,0-5.58-5.58c-90.87,0-164.79,73.92-164.79,164.78A163,163,0,0,0,63.26,394.46,165.57,165.57,0,0,0,153.15,452ZM186.67,138.4V291.25l-36.28,148.5A153.15,153.15,0,0,1,38.64,291.92C38.64,209.08,104.54,141.35,186.67,138.4Z"/><path d="M351.46,286.34H219.59a5.58,5.58,0,0,0,0,11.16H345.77a152.32,152.32,0,0,1-26.2,80.37L291.8,361.2a5.58,5.58,0,1,0-5.74,9.58l67.72,40.64a69.07,69.07,0,0,0,35.54,9.84H477a5.58,5.58,0,1,0,0-11.16H389.32a57.93,57.93,0,0,1-29.8-8.26l-30.36-18.22A163.68,163.68,0,0,0,357,291.92,5.58,5.58,0,0,0,351.46,286.34Z"/><path d="M192.26,456.7a164.35,164.35,0,0,0,111-43,5.58,5.58,0,0,0-7.52-8.25,153.23,153.23,0,0,1-103.44,40.05c-3.93,0-7.88-.15-11.76-.45a5.58,5.58,0,1,0-.85,11.13C183.81,456.54,188.05,456.7,192.26,456.7Z"/><path d="M478.94,61.91h-46a5.59,5.59,0,0,0,0,11.17h46a5.59,5.59,0,1,0,0-11.17Z"/><path d="M411,67.49a5.58,5.58,0,0,0-5.58-5.58H392a5.59,5.59,0,0,0,0,11.17h13.48A5.58,5.58,0,0,0,411,67.49Z"/><path d="M478.94,28.91H384.35A47.14,47.14,0,0,0,344.2,51.58l-58,96.2a5.56,5.56,0,0,0,1.9,7.66,5.47,5.47,0,0,0,2.87.8,5.59,5.59,0,0,0,4.79-2.7l14.15-23.48A152.7,152.7,0,0,1,378.67,252.6H230.73V104.66a152.75,152.75,0,0,1,49.21,10,5.58,5.58,0,0,0,4-10.43A164.16,164.16,0,0,0,225.15,93.4,5.58,5.58,0,0,0,219.57,99v159.2a5.58,5.58,0,0,0,5.58,5.58h159.2a5.58,5.58,0,0,0,5.58-5.58A163.83,163.83,0,0,0,315.7,120.5l38.07-63.15a35.89,35.89,0,0,1,30.58-17.28h94.59a5.58,5.58,0,1,0,0-11.16Z"/><path d="M478.94,94.92H449.58a5.58,5.58,0,1,0,0,11.16h29.36a5.58,5.58,0,1,0,0-11.16Z"/><path d="M430.09,446.59A5.58,5.58,0,0,0,424.5,441H396a5.59,5.59,0,0,0,0,11.17H424.5A5.59,5.59,0,0,0,430.09,446.59Z"/><path d="M478.94,441H447.3a5.59,5.59,0,0,0,0,11.17h31.64a5.59,5.59,0,1,0,0-11.17Z"/><path d="M478.94,471.93H427.55a5.58,5.58,0,1,0,0,11.16h51.39a5.58,5.58,0,1,0,0-11.16Z"/></svg>