<?xml version="1.0" ?><!DOCTYPE svg  PUBLIC '-//W3C//DTD SVG 1.1//EN'  'http://www.w3.org/Graphics/SVG/1.1/DTD/svg11.dtd'><svg height="139px" style="enable-background:new 0 0 122 139;" version="1.1" viewBox="0 0 122 139" width="122px" xml:space="preserve" xmlns="http://www.w3.org/2000/svg" xmlns:xlink="http://www.w3.org/1999/xlink"><style type="text/css">
<![CDATA[
	.st0{fill:#EF3E42;}
	.st1{fill:#FFFFFF;}
	.st2{fill:none;}
	.st3{fill-rule:evenodd;clip-rule:evenodd;fill:#FFFFFF;}
]]>
</style><defs/><path d="M41.8,22.8l11,11.9c4-0.6,8.2-0.6,12.3,0L76,22.8c3,1,5.9,2.2,8.7,3.6L84,42.6c3.3,2.4,6.2,5.3,8.7,8.7l16.1-0.7  c1.4,2.8,2.6,5.7,3.6,8.7l-11.9,11c0.6,4,0.6,8.2,0,12.3l11.9,10.9c-1,3-2.2,5.9-3.6,8.7l-16.2-0.6c-2.4,3.3-5.3,6.2-8.7,8.7  l0.7,16.1c-2.8,1.4-5.7,2.6-8.7,3.6l-11-11.9c-4,0.6-8.2,0.6-12.3,0L41.8,130c-3-1-5.9-2.2-8.7-3.6l0.6-16.2  c-3.3-2.4-6.2-5.3-8.7-8.7l-16.1,0.7c-1.4-2.8-2.6-5.7-3.6-8.7l11.9-11c-0.6-4-0.6-8.2,0-12.3L5.3,59.3c1-3,2.2-5.9,3.6-8.7  l16.2,0.6c2.4-3.3,5.3-6.2,8.7-8.7l-0.7-16.1C35.9,24.9,38.8,23.7,41.8,22.8L41.8,22.8z M47.7,81c2.6,6.2,9.7,9.1,15.9,6.6  c6.2-2.6,9.1-9.7,6.6-15.9c-2.6-6.2-9.7-9.2-15.9-6.6C48,67.7,45.1,74.8,47.7,81L47.7,81z"/><rect class="st2" height="139" id="_x3C_Slice_x3E__100_" width="122"/></svg>