<?xml version="1.0"?>
<svg height="32" id="svg6485" version="1.1" viewBox="0 0 32 32" width="32"
  xmlns="http://www.w3.org/2000/svg" xmlns:cc="http://creativecommons.org/ns#"
  xmlns:dc="http://purl.org/dc/elements/1.1/"
  xmlns:inkscape="http://www.inkscape.org/namespaces/inkscape"
  xmlns:rdf="http://www.w3.org/1999/02/22-rdf-syntax-ns#"
  xmlns:sodipodi="http://sodipodi.sourceforge.net/DTD/sodipodi-0.dtd"
  xmlns:svg="http://www.w3.org/2000/svg" xmlns:xlink="http://www.w3.org/1999/xlink">
  <defs id="defs6487">
    <linearGradient id="linearGradient4828">
      <stop id="stop4830" offset="0" style="stop-color:#000000;stop-opacity:1" />
      <stop id="stop4832" offset="1" style="stop-color:#000000;stop-opacity:1" />
    </linearGradient>
    <linearGradient gradientUnits="userSpaceOnUse" id="linearGradient4834" x1="3" x2="28"
      xlink:href="#linearGradient4828" y1="1035.87" y2="1035.87" />
  </defs>
  <g id="layer1" transform="translate(0,-1020.3622)">
    <text id="text4366"
      style="font-style:normal;font-weight:normal;font-size:11.25px;line-height:125%;font-family:Sans;letter-spacing:0px;word-spacing:0px;fill:#000000;fill-opacity:1;stroke:none;stroke-width:1px;stroke-linecap:butt;stroke-linejoin:miter;stroke-opacity:1"
      x="12" xml:space="preserve" y="1036.3622"><tspan id="tspan4368" x="12" y="1036.3622"/></text>
    <g id="text4981"
      style="font-style:normal;font-variant:normal;font-weight:normal;font-stretch:normal;font-size:12.37186241px;line-height:125%;font-family:'Roboto Condensed';-inkscape-font-specification:'Roboto Condensed, ';letter-spacing:0px;word-spacing:0px;fill:#000000;fill-opacity:1;stroke:none;stroke-width:1px;stroke-linecap:butt;stroke-linejoin:miter;stroke-opacity:1"
      transform="scale(1.1477838,0.87124422)" />
    <path
      d="m 18.806641,1023.3778 a 0.50004994,0.50004994 0 0 0 -0.345703,0.1465 l -4.486329,4.4844 c -1.079458,-1.5963 -2.907243,-2.6465 -4.974609,-2.6465 -3.307786,0 -6,2.6922 -6,6 0,1.7707 0.7756281,3.3596 2,4.459 l 0,10.541 c 0,1.0994 0.9006421,2 2,2 l 19,0 c 1.099357,0 2,-0.9006 2,-2 l 0,-4.5 0,-2 0,-6.5 c 0,-1.0993 -0.900643,-2 -2,-2 l -2.923828,-5.5156 a 0.50004994,0.50004994 0 0 0 -0.449219,-0.2657 0.50004994,0.50004994 0 0 0 -0.226562,0.059 l -0.730469,0.3868 -2.501953,-2.502 a 0.50004994,0.50004994 0 0 0 -0.361328,-0.1465 z m 0.0078,1.2071 1.931641,1.9316 -5.986328,3.1758 c -0.07689,-0.2648 -0.172099,-0.5211 -0.283204,-0.7696 l 4.337891,-4.3378 z M 9,1026.3622 c 2.767346,0 5,2.2327 5,5 0,2.7674 -2.232654,5 -5,5 -2.7673463,0 -5,-2.2326 -5,-5 0,-2.7673 2.2326537,-5 5,-5 z m 13.427734,0.3945 2.441407,4.6055 -9.869141,0 c 0,-0.2183 -0.01426,-0.4341 -0.03711,-0.6465 l 7.464843,-3.959 z m -13.7109371,0.6055 0,0.9258 c -0.2514655,0.031 -0.4782495,0.092 -0.6816407,0.1816 -0.2033911,0.09 -0.3772615,0.2054 -0.5214843,0.3457 -0.1405249,0.1404 -0.2504666,0.3053 -0.328125,0.4961 -0.07396,0.1909 -0.1113281,0.4007 -0.1113281,0.6309 0,0.2498 0.043852,0.4712 0.1289062,0.6621 0.088753,0.1908 0.2142402,0.3599 0.3769531,0.5058 0.166411,0.146 0.366634,0.2734 0.5996094,0.3829 0.2366734,0.1067 0.5029863,0.1998 0.7988281,0.2812 0.2218813,0.073 0.4091362,0.1499 0.5644534,0.2285 0.159015,0.079 0.286664,0.1632 0.382812,0.2559 0.099847,0.093 0.172421,0.1922 0.216797,0.2988 0.04438,0.1067 0.06641,0.2233 0.06641,0.3496 0,0.1516 -0.02656,0.2906 -0.08203,0.4141 -0.05547,0.1207 -0.136898,0.2235 -0.244141,0.3105 -0.103544,0.084 -0.233354,0.1497 -0.3886714,0.1973 -0.1516189,0.045 -0.3254892,0.068 -0.5214844,0.068 -0.1405248,0 -0.2813501,-0.018 -0.421875,-0.055 -0.1405248,-0.036 -0.2681738,-0.1007 -0.3828124,-0.1934 -0.1146384,-0.093 -0.2070811,-0.2178 -0.2773438,-0.375 -0.070263,-0.1572 -0.1054688,-0.3551 -0.1054688,-0.5937 l -0.9765624,0 c -10e-8,0.3172 0.050544,0.589 0.1503906,0.8164 0.099847,0.2246 0.2320265,0.4118 0.3984375,0.5605 0.170109,0.1488 0.365801,0.2612 0.5839843,0.3399 0.2181833,0.079 0.4428059,0.1312 0.6757813,0.1562 l 0,0.8086 0.7714844,0 0,-0.8086 c 0.2773521,-0.028 0.5261651,-0.084 0.7480471,-0.168 0.221881,-0.084 0.411089,-0.1975 0.566406,-0.3379 0.155317,-0.1403 0.276274,-0.3052 0.361328,-0.496 0.08506,-0.1938 0.126953,-0.411 0.126953,-0.6524 0,-0.247 -0.04169,-0.4643 -0.123047,-0.6523 -0.08136,-0.1881 -0.20036,-0.3549 -0.359375,-0.4981 -0.159015,-0.1432 -0.354915,-0.2683 -0.58789,-0.375 -0.232976,-0.1095 -0.50145,-0.2079 -0.8046878,-0.2949 -0.2366734,-0.076 -0.4368964,-0.1519 -0.5996093,-0.2305 -0.159015,-0.081 -0.2888253,-0.168 -0.3886719,-0.2578 -0.099846,-0.09 -0.1704674,-0.1863 -0.2148438,-0.293 -0.040678,-0.1094 -0.0625,-0.2324 -0.0625,-0.3671 0,-0.146 0.021822,-0.2797 0.0625,-0.4004 0.044376,-0.1207 0.1083049,-0.2225 0.1933594,-0.3067 0.088753,-0.087 0.1986943,-0.1555 0.328125,-0.2031 0.1294308,-0.048 0.2814793,-0.07 0.4589844,-0.07 0.1701091,0 0.3219494,0.031 0.455078,0.096 0.133129,0.065 0.245232,0.1545 0.333984,0.2695 0.088753,0.1151 0.154843,0.2511 0.199219,0.4082 0.04807,0.1573 0.07227,0.3315 0.07227,0.5196 l 0.970703,0 c 0,-0.5699 -0.142987,-1.0193 -0.427734,-1.3477 -0.28105,-0.3312 -0.679543,-0.5333 -1.197266,-0.6035 l 0,-0.9297 -0.7832031,0 z m 6.1914061,5 11.091797,0 c 0.562661,0 1,0.4374 1,1 l 0,4 -1.5,0 -1,0 -3,0 c -1.376355,0 -2.5,1.1237 -2.5,2.5 0,1.3764 1.123645,2.5 2.5,2.5 l 3,0 1,0 1.5,0 0,4 c 0,0.5627 -0.437339,1 -1,1 l -19,0 c -0.5626613,0 -1,-0.4373 -1,-1 l 0,-9.8125 c 0.8837515,0.5131 1.9068234,0.8125 3,0.8125 2.966128,0 5.429362,-2.1678 5.908203,-5 z m 0.0918,1 0,1 1,0 0,-1 -1,0 z m 2,0 0,1 1,0 0,-1 -1,0 z m 2,0 0,1 1,0 0,-1 -1,0 z m 2,0 0,1 1,0 0,-1 -1,0 z m 2,0 0,1 1,0 0,-1 -1,0 z m 2,0 0,1 1,0 0,-1 -1,0 z m 0,2 0,1 1,0 0,-1 -1,0 z m -18,2 0,1 1,0 0,-1 -1,0 z m 14.5,1 3,0 1,0 1.5,0 0,1.5 0,1.5 -1.5,0 -1,0 -3,0 c -0.839655,0 -1.5,-0.6603 -1.5,-1.5 0,-0.8396 0.660345,-1.5 1.5,-1.5 z m -14.5,1 0,1 1,0 0,-1 -1,0 z m 14,0 0,1 1,0 0,-1 -1,0 z m -14,2 0,1 1,0 0,-1 -1,0 z m 0,2 0,1 1,0 0,-1 -1,0 z m 18,0 0,1 1,0 0,-1 -1,0 z m -18,2 0,1 1,0 0,-1 -1,0 z m 2,0 0,1 1,0 0,-1 -1,0 z m 2,0 0,1 1,0 0,-1 -1,0 z m 2,0 0,1 1,0 0,-1 -1,0 z m 2,0 0,1 1,0 0,-1 -1,0 z m 2,0 0,1 1,0 0,-1 -1,0 z m 2,0 0,1 1,0 0,-1 -1,0 z m 2,0 0,1 1,0 0,-1 -1,0 z m 2,0 0,1 1,0 0,-1 -1,0 z m 2,0 0,1 1,0 0,-1 -1,0 z"
      id="rect4307"
      style="color:#000000;font-style:normal;font-variant:normal;font-weight:normal;font-stretch:normal;font-size:medium;line-height:normal;font-family:sans-serif;text-indent:0;text-align:start;text-decoration:none;text-decoration-line:none;text-decoration-style:solid;text-decoration-color:#000000;letter-spacing:normal;word-spacing:normal;text-transform:none;direction:ltr;block-progression:tb;writing-mode:lr-tb;baseline-shift:baseline;text-anchor:start;white-space:normal;clip-rule:nonzero;display:inline;overflow:visible;visibility:visible;opacity:1;isolation:auto;mix-blend-mode:normal;color-interpolation:sRGB;color-interpolation-filters:linearRGB;solid-color:#000000;solid-opacity:1;fill:url(#linearGradient4834);fill-opacity:1;fill-rule:nonzero;stroke:none;stroke-width:1;stroke-linecap:butt;stroke-linejoin:round;stroke-miterlimit:4;stroke-dasharray:none;stroke-dashoffset:0;stroke-opacity:1;color-rendering:auto;image-rendering:auto;shape-rendering:auto;text-rendering:auto;enable-background:accumulate" />
    <g id="text4922"
      style="font-style:normal;font-variant:normal;font-weight:normal;font-stretch:normal;font-size:9.89761639px;line-height:125%;font-family:'Roboto Condensed';-inkscape-font-specification:'Roboto Condensed, ';letter-spacing:0px;word-spacing:0px;fill:#000000;fill-opacity:1;stroke:none;stroke-width:1px;stroke-linecap:butt;stroke-linejoin:miter;stroke-opacity:1"
      transform="scale(1.1477838,0.87124422)" />
  </g>
</svg>